<?xml version="1.0" standalone="no"?>
<!DOCTYPE svg PUBLIC "-//W3C//DTD SVG 20010904//EN"
 "http://www.w3.org/TR/2001/REC-SVG-20010904/DTD/svg10.dtd">
<svg version="1.0" xmlns="http://www.w3.org/2000/svg"
 width="460.000000pt" height="460.000000pt" viewBox="0 0 460.000000 460.000000"
 preserveAspectRatio="xMidYMid meet">
<metadata>
Created by potrace 1.14, written by Peter Selinger 2001-2017
</metadata>
<g transform="translate(0.000000,460.000000) scale(0.100000,-0.100000)"
fill="#000000" stroke="none">
<path d="M1232 4583 c2 -10 10 -21 18 -25 12 -5 12 -7 -2 -7 -10 -1 -18 -6
-18 -12 0 -5 4 -8 8 -5 5 3 8 -4 8 -14 -1 -11 4 -18 9 -17 6 1 9 6 7 10 -1 5
1 6 6 3 4 -2 14 -1 22 5 12 7 9 9 -10 9 -20 0 -22 2 -10 10 8 5 11 10 6 10 -5
0 -3 7 4 15 16 19 4 35 -26 35 -18 0 -24 -5 -22 -17z"/>
<path d="M1807 4568 c2 -18 3 -39 3 -45 0 -7 0 -20 0 -28 0 -26 0 -49 0 -113
-1 -35 1 -66 4 -70 2 -4 -9 -23 -25 -41 -16 -19 -29 -41 -29 -51 0 -19 -80
-129 -94 -130 -5 0 -16 -8 -25 -18 -9 -11 -21 -21 -26 -23 -25 -9 -93 -97
-100 -126 -3 -18 -11 -33 -16 -33 -5 0 -9 -5 -9 -11 0 -23 -71 -82 -101 -84
-21 -1 -28 2 -25 11 3 7 -3 16 -14 19 -10 3 -24 13 -32 23 -12 15 -11 16 5 3
11 -9 17 -10 17 -2 0 22 -2 26 -11 23 -6 -1 -5 7 1 18 8 14 8 20 0 20 -6 0 -8
5 -5 10 4 6 11 7 17 4 7 -4 8 -2 4 4 -5 9 -13 9 -27 2 -15 -9 -19 -7 -19 5 0
9 4 14 9 11 13 -9 20 67 7 84 -10 13 -9 13 7 1 15 -12 17 -11 17 13 0 14 -6
26 -12 26 -9 0 -8 4 2 10 13 9 13 11 1 19 -13 8 -13 12 0 27 9 11 9 15 2 10
-9 -5 -13 0 -13 18 0 13 4 26 9 28 5 2 2 10 -7 18 -14 13 -15 12 -9 -3 3 -9 2
-19 -2 -21 -5 -3 -7 5 -6 17 1 12 4 22 5 22 1 0 4 10 5 22 1 12 -1 20 -6 17
-4 -2 -6 -11 -2 -19 3 -8 3 -15 0 -15 -3 0 -11 16 -17 36 -11 31 -10 37 7 49
17 13 17 13 -1 12 -12 -1 -20 6 -22 21 -2 12 0 22 5 22 6 0 8 -9 6 -19 -3 -15
0 -18 13 -14 10 4 12 8 4 11 -7 2 -10 7 -7 12 3 4 -2 13 -10 20 -8 7 -15 27
-15 45 0 19 -6 35 -14 38 -20 8 -28 -4 -13 -21 6 -9 7 -13 2 -10 -7 4 -10 -30
-11 -95 0 -56 -3 -121 -6 -145 -2 -24 -1 -45 2 -47 4 -2 6 -14 5 -27 -1 -13 2
-33 6 -45 6 -16 5 -23 -4 -23 -9 0 -9 -2 0 -8 7 -5 14 -20 15 -34 1 -15 6 -24
10 -22 4 3 8 2 9 -3 1 -8 7 -61 10 -93 1 -8 6 -20 11 -27 5 -6 5 -14 1 -16 -5
-3 -8 -44 -7 -91 1 -48 -2 -88 -6 -91 -4 -2 -5 -17 -2 -31 3 -19 1 -25 -7 -20
-6 4 -11 3 -11 -3 0 -5 6 -11 13 -14 9 -3 9 -7 -2 -20 -9 -12 -12 -35 -8 -77
3 -40 1 -58 -6 -53 -6 4 -7 1 -3 -6 5 -7 9 -78 11 -159 3 -137 9 -215 20 -287
3 -16 8 -79 11 -140 3 -60 9 -119 13 -130 5 -11 17 -56 26 -100 10 -44 21 -84
25 -90 3 -5 6 -17 5 -25 0 -8 2 -17 5 -20 6 -5 31 -93 35 -125 2 -11 4 -21 5
-22 2 -2 3 -6 4 -10 1 -5 4 -12 7 -18 8 -13 48 -134 52 -160 2 -11 7 -28 11
-37 4 -9 9 -22 10 -30 1 -7 8 -23 14 -36 7 -12 10 -27 7 -32 -3 -5 -1 -11 5
-15 15 -10 40 -68 45 -108 6 -44 -13 -78 -51 -95 -34 -16 -45 -26 -138 -117
-78 -78 -119 -142 -166 -262 -7 -18 -16 -33 -21 -33 -5 0 -9 -5 -9 -11 0 -18
-51 -78 -71 -84 -11 -4 -17 -11 -14 -16 4 -5 1 -9 -5 -9 -7 0 -28 -16 -47 -35
-19 -19 -38 -35 -42 -35 -5 0 -19 -9 -32 -20 -37 -31 -44 -35 -59 -38 -8 -2
-22 -10 -31 -18 -8 -8 -25 -14 -37 -14 -12 0 -22 -5 -22 -12 0 -6 -3 -8 -6 -5
-4 4 -19 -2 -33 -12 -35 -25 -101 -52 -111 -46 -5 3 -12 1 -15 -5 -5 -8 -11
-7 -21 1 -11 9 -14 8 -14 -6 0 -9 -6 -15 -12 -12 -17 6 -70 -21 -63 -32 3 -5
-2 -11 -10 -14 -10 -4 -12 -1 -8 11 3 10 -2 7 -12 -7 -14 -18 -19 -20 -26 -10
-7 10 -8 5 -5 -13 3 -17 -1 -28 -10 -32 -9 -3 -12 -11 -8 -17 5 -8 3 -9 -5 -5
-8 5 -14 1 -18 -12 -3 -13 -11 -18 -19 -15 -13 5 -18 -8 -17 -44 0 -6 -8 -10
-19 -8 -10 2 -16 0 -12 -6 3 -6 -1 -18 -9 -27 -15 -17 -17 -21 -17 -42 0 -5
-7 -10 -15 -10 -9 0 -15 -10 -15 -26 0 -14 -4 -23 -8 -20 -4 2 -9 -4 -9 -15
-1 -11 -12 -29 -25 -40 -13 -11 -16 -18 -8 -14 8 4 4 -3 -10 -14 -14 -11 -32
-20 -40 -19 -8 2 -21 -1 -27 -5 -8 -5 -13 -4 -13 2 0 6 -6 10 -12 8 -7 -1 -12
4 -10 12 2 8 -3 11 -13 8 -8 -4 -15 -2 -15 4 0 6 -7 9 -15 6 -8 -4 -17 -1 -21
5 -4 6 -3 8 3 5 6 -4 13 0 16 8 4 9 1 12 -9 8 -10 -4 -12 0 -7 13 6 16 5 17
-9 4 -9 -8 -14 -17 -13 -20 2 -4 -7 -6 -21 -6 -27 0 -30 6 -13 23 9 9 7 12 -8
10 -13 0 -19 -6 -16 -14 3 -7 0 -13 -6 -13 -8 0 -11 -91 -11 -315 l0 -315 944
0 c932 0 945 0 943 20 -1 10 -3 17 -5 15 -5 -4 -66 84 -75 109 -4 10 -12 14
-17 11 -6 -4 -10 -3 -9 2 3 19 -2 34 -10 29 -5 -3 -8 2 -7 12 0 9 -4 16 -11
15 -14 -3 -27 32 -18 47 4 6 3 10 -2 9 -21 -4 -33 2 -33 17 0 10 -5 14 -16 10
-9 -4 -13 -2 -8 5 3 6 17 9 30 6 23 -4 22 -2 -12 42 -21 25 -57 65 -80 88 -24
24 -40 43 -36 43 10 0 123 -118 183 -190 50 -61 130 -179 163 -243 l23 -42
1086 -2 1086 -3 4 33 4 32 1 -32 2 -33 194 0 193 0 -1 33 c0 17 -5 35 -11 39
-5 4 -10 21 -11 39 -1 17 -6 34 -10 38 -5 3 -9 15 -9 26 0 14 -6 19 -19 17
-14 -3 -17 1 -13 12 4 9 3 16 -1 16 -4 0 -13 9 -20 21 -8 12 -9 18 -4 15 6 -3
12 1 16 9 5 14 -5 20 -27 16 -4 -1 0 10 9 24 16 25 16 26 -4 32 -17 4 -19 9
-12 29 7 18 6 22 -6 17 -8 -3 -14 -2 -12 3 2 5 -1 10 -7 11 -5 1 -9 -4 -7 -12
1 -7 -3 -17 -9 -21 -7 -4 -9 -3 -5 4 3 6 2 21 -3 34 -6 16 -5 31 2 44 6 10 12
25 13 32 3 20 -14 14 -21 -7 -4 -14 -11 -18 -23 -14 -10 4 -12 8 -4 11 7 2 9
8 6 13 -3 6 0 16 6 24 8 10 9 19 1 32 -6 11 -11 13 -11 5 0 -29 -20 2 -20 32
0 25 -6 35 -25 44 -14 6 -25 19 -25 27 0 9 4 13 10 10 6 -4 7 1 3 12 -6 15
-10 11 -21 -20 -21 -54 -39 -46 -34 16 1 9 -2 17 -7 17 -13 0 -20 49 -7 53 7
3 7 9 -3 20 -7 10 -10 17 -6 17 4 0 3 6 -3 13 -10 12 -12 18 -12 36 0 10 -56
24 -86 22 -11 -1 -27 5 -34 13 -7 9 -19 16 -28 16 -8 0 -12 3 -8 7 4 4 23 6
42 4 50 -4 42 5 -20 23 -30 9 -57 20 -61 25 -6 11 14 9 34 -3 10 -6 12 -5 7 2
-5 8 1 12 16 12 19 0 15 5 -20 26 -28 17 -41 31 -38 40 3 8 0 15 -7 16 -7 0
-16 2 -22 3 -5 2 -16 3 -22 4 -7 0 -13 6 -13 12 0 8 6 7 18 -2 15 -12 15 -11
-1 8 -11 12 -27 20 -38 18 -11 -2 -17 0 -14 6 4 5 -5 9 -19 9 -13 0 -31 7 -39
15 -8 8 -17 11 -21 8 -3 -4 -6 0 -6 7 0 7 -3 11 -6 7 -3 -3 -17 6 -30 20 -13
14 -28 22 -35 17 -7 -4 -9 -3 -6 3 4 6 -24 22 -68 38 -40 14 -79 33 -86 41
-11 13 -14 13 -21 0 -5 -9 -6 -22 -2 -29 5 -9 4 -9 -5 -1 -7 6 -13 21 -14 33
-1 11 -2 21 -3 21 -1 0 -19 7 -40 15 l-39 16 25 -20 c14 -11 29 -21 33 -21 5
0 2 -7 -7 -15 -17 -17 -46 -10 -46 11 0 8 -5 14 -11 14 -26 0 -80 33 -75 47 4
8 -4 17 -18 23 -14 5 -39 25 -57 44 -18 20 -37 36 -43 36 -6 0 -3 -7 7 -14 23
-18 22 -29 -3 -16 -11 6 -20 17 -20 25 0 7 -5 17 -12 21 -7 4 -8 3 -4 -4 4 -7
1 -12 -6 -12 -10 0 -9 -3 2 -11 11 -8 9 -9 -10 -3 -14 4 -29 12 -33 18 -4 6
-5 -7 -2 -29 l5 -40 -17 47 c-18 47 -33 70 -33 50 0 -6 4 -22 10 -37 7 -17 7
-24 0 -20 -12 8 -12 8 1 -35 6 -19 14 -82 19 -139 5 -69 12 -106 21 -112 11
-7 15 3 19 44 4 37 7 46 12 32 4 -11 3 -38 -2 -60 -7 -31 -6 -45 6 -64 11 -16
13 -26 5 -34 -7 -7 -12 -1 -17 19 -4 16 -13 36 -20 44 -15 18 -62 104 -75 139
-8 21 -8 22 6 11 13 -11 15 -8 15 22 0 19 -4 38 -9 43 -6 6 -13 25 -16 44 -3
18 -12 43 -20 55 -8 11 -15 29 -15 40 0 11 -3 17 -6 13 -7 -7 23 -141 37 -169
5 -10 5 -19 0 -22 -8 -5 -19 18 -25 49 -11 62 -31 133 -42 150 -8 12 -11 25
-8 28 4 4 1 13 -5 21 -7 8 -11 20 -10 28 3 24 -1 39 -8 35 -5 -3 -8 19 -8 48
0 30 -6 69 -14 87 -8 18 -16 46 -17 62 -1 16 -6 31 -10 35 -5 3 -10 13 -12 21
-5 29 -24 70 -32 70 -5 0 -8 -24 -8 -52 -1 -122 -53 -494 -76 -550 -31 -72
-165 -166 -323 -225 -78 -29 -223 -41 -288 -25 -206 52 -344 113 -421 186 -34
33 -46 54 -59 104 -8 34 -13 67 -10 72 3 6 1 10 -5 10 -8 0 -10 10 -6 27 5 21
4 24 -4 13 -8 -12 -10 -10 -10 10 1 14 -6 95 -13 180 -9 105 -11 157 -4 162
14 9 19 46 7 53 -6 3 -10 14 -9 23 0 14 2 14 6 2 3 -8 12 -23 21 -32 10 -13
11 -18 3 -18 -8 0 -7 -5 3 -16 21 -20 20 -34 -1 -34 -16 0 -16 2 -3 11 10 7
11 9 2 7 -21 -5 -15 -23 8 -26 11 -2 18 -8 15 -13 -4 -5 2 -9 12 -9 17 -1 17
-1 1 -14 -10 -7 -18 -17 -18 -21 0 -4 6 -2 14 4 7 6 22 8 31 4 15 -5 17 -3 12
13 -5 14 -2 12 13 -6 11 -14 19 -29 19 -35 0 -5 -3 -4 -6 3 -6 16 -33 15 -33
-2 0 -13 45 -49 65 -52 6 0 14 -2 18 -2 5 -1 1 -10 -8 -19 -16 -16 -16 -17 1
-30 12 -9 13 -13 4 -13 -7 0 -10 -3 -7 -7 4 -3 15 1 26 11 18 16 19 16 26 -11
3 -15 12 -32 18 -36 7 -5 2 -5 -11 -2 -22 6 -23 5 -12 -15 10 -18 14 -20 21
-9 7 11 9 11 9 -3 0 -9 4 -18 10 -20 5 -1 11 -13 13 -26 5 -36 22 -47 47 -29
18 13 19 15 5 21 -25 9 -28 8 -21 -10 4 -10 1 -14 -6 -12 -12 4 -13 14 -9 48
0 6 13 3 27 -6 21 -14 27 -15 34 -4 5 8 8 -2 7 -27 -1 -28 -6 -39 -14 -36 -7
3 -10 9 -7 14 3 5 1 9 -4 9 -5 0 -12 -9 -15 -20 -4 -17 -2 -20 14 -15 13 4 21
1 26 -11 6 -16 7 -16 14 2 3 10 2 25 -3 31 -15 19 -2 43 22 43 17 0 20 4 14
22 -6 21 -6 21 10 5 10 -10 14 -22 10 -29 -5 -8 -1 -8 10 1 15 13 19 13 27 0
8 -13 13 -6 10 14 -1 5 3 5 9 2 6 -4 9 -14 5 -23 -4 -11 3 -8 21 8 15 14 24
20 20 13 -3 -6 -2 -14 4 -18 5 -3 10 -2 10 3 0 6 8 9 18 8 9 0 16 4 15 10 -1
6 4 11 12 11 8 0 12 -4 9 -9 -3 -4 -1 -8 5 -8 5 0 13 5 16 11 5 7 14 4 28 -8
19 -17 20 -17 14 0 -4 11 -1 17 8 17 8 0 15 5 15 11 0 6 6 9 14 6 9 -4 12 0 9
13 -4 15 -1 18 15 14 11 -3 27 2 36 12 15 15 19 15 28 3 8 -11 9 -10 4 4 -3
11 0 17 10 17 8 0 12 5 9 10 -3 6 0 10 8 10 9 0 15 10 15 26 0 14 5 31 11 37
7 7 12 8 11 2 -5 -22 0 -36 10 -30 6 4 8 10 5 15 -3 5 8 24 25 41 16 18 30 37
30 42 0 6 10 21 23 35 15 16 17 23 7 20 -15 -3 -55 -57 -52 -69 1 -4 -19 -10
-43 -14 -25 -3 -45 -12 -45 -18 0 -8 -4 -7 -9 2 -5 8 -6 21 -3 30 5 13 3 13
-12 -1 -9 -10 -22 -18 -27 -18 -6 0 -8 -4 -4 -9 3 -5 1 -12 -5 -16 -15 -9 -51
4 -49 18 3 23 -3 52 -7 40 -3 -7 -12 -9 -21 -6 -13 5 -15 2 -11 -15 4 -13 2
-20 -4 -16 -5 3 -7 17 -4 30 5 17 2 24 -9 24 -8 0 -15 9 -15 19 0 15 -6 18
-32 16 -18 -2 -42 -7 -52 -11 -14 -5 -17 -4 -12 4 9 15 4 15 -29 0 -32 -14
-43 -4 -19 19 16 17 17 18 0 21 -14 3 -15 6 -5 18 7 9 8 14 3 12 -9 -3 -14 4
-14 22 0 6 9 6 26 0 33 -13 31 -14 38 15 4 14 11 23 16 20 5 -3 7 -12 3 -20
-3 -9 1 -15 10 -15 10 0 13 7 10 20 -6 23 15 28 35 8 9 -9 12 -8 12 4 0 9 -4
19 -10 23 -5 3 -7 12 -4 19 3 8 0 17 -6 21 -6 4 -2 13 12 25 17 13 25 15 31 7
6 -8 7 -6 3 6 -7 21 -2 22 18 1 15 -14 16 -14 16 0 0 21 -35 51 -61 52 -19 1
-19 0 -3 -18 14 -14 15 -21 5 -31 -9 -9 -14 -9 -21 3 -9 13 -11 13 -20 0 -5
-8 -7 -22 -5 -30 3 -11 -2 -16 -16 -16 -15 0 -19 5 -15 20 3 11 -2 24 -11 31
-10 7 -13 17 -8 25 6 10 9 9 16 -1 6 -10 9 -8 9 8 0 22 -3 23 -85 14 -5 -1 -4
-6 3 -13 7 -7 12 -16 12 -22 0 -5 -6 -2 -12 7 -8 10 -31 18 -58 20 -25 2 -56
8 -70 14 -23 10 -23 10 15 18 22 4 70 8 107 8 53 0 65 2 61 14 -3 8 -11 12
-18 9 -24 -9 -24 6 0 30 24 24 62 34 49 13 -4 -7 4 -9 27 -6 62 10 99 19 105
28 2 5 -16 2 -41 -5 -25 -8 -45 -10 -45 -6 0 5 19 13 43 18 32 7 45 6 54 -5 7
-9 13 -11 18 -4 3 6 1 11 -5 11 -6 0 -8 5 -5 11 4 6 13 8 21 5 21 -8 25 9 4
22 -12 7 -21 8 -25 2 -3 -6 -16 -10 -29 -10 -12 0 -27 -5 -34 -12 -7 -7 -51
-12 -119 -12 l-108 -1 -3 43 c-3 37 -1 42 18 42 12 0 24 -9 30 -22 l9 -23 0
22 c1 24 23 34 67 32 16 -1 44 5 63 12 28 12 35 12 39 1 3 -10 8 -9 23 4 10 9
25 14 34 10 9 -3 27 1 40 10 20 13 26 14 29 3 14 -43 14 -44 15 -26 1 18 31
25 31 6 0 -5 5 -7 10 -4 6 3 10 -2 10 -12 0 -22 -39 -59 -57 -55 -7 2 -13 -6
-13 -16 0 -10 7 -19 15 -19 8 0 15 6 15 14 0 7 6 13 14 13 8 0 36 18 61 40 51
44 65 49 66 23 0 -12 5 -7 14 12 23 53 8 64 -86 59 -45 -3 -85 -7 -90 -9 -4
-3 -10 -1 -13 4 -7 11 -136 9 -154 -3 -7 -4 -16 -4 -22 -1 -5 3 -10 1 -10 -6
0 -7 -12 -9 -37 -5 -21 3 -44 7 -52 8 -11 1 -10 4 3 13 8 7 14 14 12 16 -2 2
19 5 47 7 30 1 58 9 69 19 10 9 18 12 18 7 0 -5 7 -1 15 10 7 10 18 15 23 12
6 -3 12 1 16 9 3 8 -2 19 -11 23 -10 6 -14 16 -10 26 4 9 2 16 -3 16 -13 0
-13 47 1 55 14 9 39 -26 33 -46 -3 -11 2 -15 18 -14 23 2 40 35 18 35 -6 0 -9
4 -5 9 3 5 1 12 -5 16 -15 10 -12 35 5 35 27 0 16 20 -12 22 -52 2 -77 -3
-107 -25 -16 -11 -26 -15 -22 -8 6 9 1 12 -20 9 -16 -1 -32 -7 -36 -13 -5 -6
-11 -6 -19 2 -6 6 -17 9 -24 6 -7 -2 -16 5 -20 16 -3 12 -11 21 -16 21 -5 0
-8 15 -7 33 2 21 -1 31 -9 30 -7 -2 -10 4 -6 13 5 13 7 13 14 2 12 -19 11 0
-1 23 -9 15 -7 19 6 19 13 0 11 5 -10 25 l-26 24 26 26 c17 17 24 33 21 46 -3
10 -2 19 1 19 4 0 7 27 8 60 0 73 19 99 60 84 18 -6 38 -31 65 -84 47 -89 66
-111 125 -142 45 -23 58 -48 27 -48 -17 -1 -17 -1 0 -11 10 -6 17 -22 17 -39
0 -17 5 -30 12 -30 7 0 29 -12 50 -26 31 -22 36 -29 27 -45 -5 -11 -7 -19 -4
-19 3 0 1 -9 -5 -20 -13 -24 -2 -50 11 -29 6 10 9 7 9 -10 0 -19 -2 -21 -15
-11 -12 10 -18 9 -31 -5 -16 -16 -16 -17 7 -13 16 2 23 -2 21 -10 -2 -10 2
-10 19 -1 19 10 21 9 16 -5 -4 -9 -2 -16 4 -16 6 0 8 -4 5 -8 -2 -4 -1 -14 5
-22 7 -12 9 -11 9 4 0 18 2 17 19 -3 11 -13 22 -28 25 -34 3 -9 7 -8 14 2 13
19 -18 65 -31 47 -6 -7 -7 -4 -3 7 3 10 6 21 6 24 0 3 7 -1 16 -8 9 -7 23 -14
31 -15 23 -4 43 -25 43 -45 0 -11 5 -19 10 -19 6 0 10 -26 10 -57 l1 -58 15
35 c11 25 15 56 11 108 -4 67 -6 74 -40 107 -19 19 -38 44 -42 55 -3 11 -11
20 -16 20 -5 0 -9 5 -9 10 0 18 -98 107 -133 121 -17 7 -39 20 -47 28 -13 12
-6 13 53 9 37 -3 70 -2 73 3 3 5 -5 9 -18 10 -13 1 12 7 54 14 192 32 237 71
254 214 3 33 13 69 20 78 12 17 13 17 14 1 0 -9 -5 -20 -10 -23 -7 -4 -6 -14
2 -28 18 -34 56 -233 53 -280 -3 -48 4 -65 16 -46 13 21 38 -9 41 -49 2 -35
26 -44 48 -17 13 16 5 71 -15 95 -26 31 -48 94 -47 133 1 22 4 42 6 44 2 3 0
19 -5 36 -7 23 -5 35 7 48 16 18 29 143 14 134 -4 -2 -11 14 -14 37 -5 28 -10
38 -15 29 -12 -18 -23 27 -12 48 21 41 21 100 0 138 -23 40 -30 64 -34 103 -1
14 -7 39 -14 55 -7 17 -17 40 -22 53 -5 12 -13 22 -19 22 -5 0 -10 8 -10 18 0
9 -7 30 -15 46 -14 26 -22 52 -24 79 -1 5 -5 6 -9 3 -5 -3 -16 8 -26 25 -9 16
-23 29 -30 29 -14 0 -25 29 -27 70 0 23 -1 23 -8 5 -8 -19 -9 -18 -12 5 -3 16
-10 24 -19 22 -8 -2 -12 0 -8 3 11 11 -10 45 -27 45 -8 0 -15 7 -15 17 0 9 -3
14 -6 11 -5 -5 -15 3 -79 62 -25 23 -113 70 -131 70 -13 0 -84 30 -94 40 -7 7
-102 41 -117 42 -7 1 -11 3 -8 6 2 2 -13 16 -34 31 -72 50 -87 66 -98 108 -6
23 -9 57 -6 77 2 20 0 36 -5 36 -4 0 -6 15 -4 34 2 18 -1 44 -8 56 -9 18 -9
21 0 15 8 -5 11 -3 8 6 -4 11 -34 15 -130 17 l-125 3 4 -33z m328 -338 c10
-11 16 -20 13 -20 -3 0 -13 9 -23 20 -10 11 -16 20 -13 20 3 0 13 -9 23 -20z
m229 -327 c4 -4 25 -9 48 -10 22 -2 46 -7 52 -12 6 -5 34 -11 61 -13 32 -3 66
-15 95 -33 64 -40 61 -37 189 -255 52 -90 86 -223 59 -232 -9 -3 -9 -12 1 -35
7 -18 10 -40 7 -51 -4 -11 -2 -31 3 -46 12 -30 8 -31 -72 -20 -30 4 -57 16
-78 35 -18 16 -36 26 -42 22 -5 -3 -6 3 -2 16 5 15 2 21 -10 21 -10 0 -13 -5
-9 -12 4 -7 3 -8 -4 -4 -7 4 -12 14 -12 22 0 8 -10 14 -22 14 -36 0 -68 -11
-62 -21 3 -5 -7 -8 -21 -7 -24 2 -24 4 -9 15 10 7 14 16 10 20 -4 4 -10 3 -14
-3 -4 -5 -20 -10 -37 -11 -100 -2 -173 -8 -170 -13 1 -3 -4 -12 -13 -20 -14
-13 -15 -12 -10 2 9 22 -16 56 -27 38 -6 -9 -4 -11 6 -5 12 7 12 5 1 -6 -11
-12 -14 -12 -21 0 -5 7 -14 10 -20 7 -6 -4 -9 -11 -6 -16 3 -5 -4 -7 -15 -5
-37 7 -52 -5 -45 -34 4 -14 8 -30 9 -36 1 -5 5 -16 9 -22 5 -7 6 -17 2 -22 -3
-5 -1 -12 4 -16 14 -8 9 -45 -6 -45 -7 0 -13 5 -13 10 0 6 -7 10 -15 10 -8 0
-15 4 -15 10 0 5 -16 12 -35 16 -30 5 -81 37 -73 46 8 9 -29 45 -45 42 -9 -1
-15 2 -12 7 3 4 -17 6 -46 3 -28 -3 -68 1 -88 7 -20 7 -55 13 -78 14 -23 0
-45 4 -49 8 -10 10 -26 9 -20 -1 3 -5 -5 -8 -16 -7 -12 1 -24 8 -26 15 -3 9 1
11 12 7 10 -4 19 -1 22 8 4 8 13 15 21 15 8 0 11 -5 7 -12 -4 -7 -3 -10 1 -5
10 9 11 74 1 84 -4 4 -11 1 -16 -7 -8 -13 -10 -13 -10 1 0 9 10 20 23 24 12 4
25 8 30 10 4 1 12 3 17 4 7 1 6 7 -2 15 -11 12 -14 12 -21 0 -4 -8 -13 -14
-19 -14 -6 0 -4 8 5 18 10 10 14 22 10 26 -13 13 32 -7 50 -22 15 -14 17 -13
17 1 0 11 6 15 18 11 14 -5 14 -4 2 4 -8 6 -18 8 -24 5 -5 -4 -7 8 -3 29 3 21
1 40 -6 48 -9 9 -9 11 3 8 8 -2 14 3 15 10 0 7 5 16 10 20 16 11 17 34 3 44
-8 5 -2 6 15 2 22 -5 27 -3 27 12 0 16 2 17 10 4 8 -12 10 -11 10 6 0 22 36
41 42 22 2 -6 16 -10 31 -10 16 0 24 -5 21 -12 -3 -6 2 -2 11 9 9 11 14 28 11
38 -4 15 -2 16 10 6 11 -9 14 -8 14 4 0 9 -8 18 -17 20 -12 3 -10 5 7 6 19 1
22 3 10 10 -8 6 -18 7 -22 5 -4 -3 -5 3 -1 12 4 12 8 14 11 5 3 -8 8 -7 19 6
8 10 11 11 7 3 -5 -11 -2 -10 13 3 11 10 26 17 34 15 7 -2 13 3 14 11 0 14
122 60 142 54 6 -2 13 5 16 17 4 14 13 20 35 20 17 0 34 5 37 10 7 12 19 13
29 3z m-674 -505 c0 -4 -4 -8 -9 -8 -5 0 -17 -3 -27 -7 -16 -6 -17 -5 -4 8 15
17 40 21 40 7z m0 -68 c0 -5 -8 -10 -17 -10 -15 0 -16 2 -3 10 19 12 20 12 20
0z m1259 -214 c6 -22 9 -41 7 -43 -8 -8 -34 45 -40 82 -7 37 -6 38 7 20 8 -11
20 -38 26 -59z m-173 43 c43 -13 57 -51 52 -136 -5 -87 -31 -142 -78 -165 -19
-9 -80 -25 -134 -34 -165 -28 -259 -5 -302 72 -22 38 -22 71 0 43 26 -34 99
-62 184 -72 32 -3 44 7 20 16 -7 3 7 6 32 6 68 2 81 17 20 25 -62 8 -58 21 10
30 27 4 50 11 50 16 0 6 -5 10 -12 10 -6 0 -8 3 -5 6 4 4 13 2 20 -4 20 -17
98 -20 126 -6 l24 12 -29 4 c-16 2 -29 8 -29 13 -1 6 -6 20 -13 33 -17 29 -9
28 22 -3 14 -14 30 -25 37 -25 7 0 9 9 5 25 -5 18 -2 25 9 25 8 0 15 4 15 8 0
16 -41 46 -63 48 -12 1 -29 4 -37 7 -59 19 -95 26 -104 17 -6 -6 -17 -10 -25
-10 -11 0 -10 4 5 16 17 14 17 15 1 10 -25 -8 -11 13 17 24 24 10 135 3 182
-11z m-149 -95 c17 -17 17 -17 -7 -11 -14 4 -32 7 -41 7 -8 0 -24 7 -35 16
-18 14 -16 15 23 11 23 -3 50 -13 60 -23z m-1227 -124 c0 -13 -1 -13 -10 0 -5
8 -10 22 -10 30 0 13 1 13 10 0 5 -8 10 -22 10 -30z m193 -153 c27 2 37 -2 37
-12 0 -8 5 -14 12 -12 6 1 13 -5 15 -14 3 -14 -2 -15 -39 -9 -56 11 -91 51
-112 130 -4 14 6 0 21 -30 27 -53 30 -55 66 -53z m-107 48 c-3 -8 -2 -15 2
-17 5 -2 18 -20 30 -40 21 -34 22 -40 9 -65 -21 -41 -28 -81 -17 -88 5 -3 10
1 10 10 0 9 4 14 9 10 6 -3 11 13 13 36 2 25 9 44 16 47 11 3 12 0 5 -14 -18
-36 -10 -59 19 -59 14 1 24 -3 22 -7 -3 -5 6 -3 20 3 29 14 61 5 50 -13 -6
-10 -4 -11 7 0 7 6 21 12 30 12 9 0 45 9 79 20 75 24 70 24 70 2 0 -9 -11 -25
-24 -35 -16 -12 -22 -25 -19 -38 3 -10 0 -25 -6 -32 -6 -8 -8 -17 -4 -20 3 -4
1 -7 -5 -7 -7 0 -24 -25 -39 -55 -15 -30 -33 -55 -40 -55 -16 0 -33 -39 -26
-57 3 -7 0 -13 -6 -13 -6 0 -11 -10 -12 -22 0 -13 -3 -17 -6 -10 -2 6 -9 10
-14 6 -5 -3 -9 0 -9 5 0 6 4 11 9 11 5 0 8 11 7 25 0 14 -5 25 -9 25 -5 0 -5
5 -2 10 4 6 10 8 14 6 4 -3 8 1 8 9 0 8 -5 11 -11 8 -6 -3 -5 0 2 8 15 16 16
33 0 23 -7 -4 -8 -3 -4 4 7 12 -13 52 -27 52 -4 0 -5 -4 -2 -10 3 -5 1 -10 -4
-10 -6 0 -11 9 -11 20 0 11 5 19 11 17 6 -1 14 4 16 11 7 19 -14 14 -36 -9
-12 -13 -24 -18 -32 -13 -9 5 -11 1 -7 -14 4 -12 2 -20 -3 -16 -5 3 -9 2 -10
-3 0 -4 -2 -16 -4 -26 -3 -14 0 -16 10 -7 10 9 12 4 10 -22 -13 -124 -28 -165
-40 -110 -4 19 -11 29 -19 26 -7 -3 -13 1 -14 8 -4 49 -6 64 -13 73 -4 6 -12
37 -18 69 -19 104 -10 399 11 361 5 -9 7 -22 4 -30z m-86 -81 c0 -8 -4 -12
-10 -9 -5 3 -10 10 -10 16 0 5 5 9 10 9 6 0 10 -7 10 -16z m463 -6 c-2 -5 -32
-8 -66 -7 -39 0 -55 3 -43 8 25 10 116 8 109 -1z m-460 -83 c3 -33 3 -47 -1
-31 -10 42 -35 48 -29 7 3 -17 1 -29 -4 -25 -5 3 -9 14 -9 25 0 22 28 95 34
88 2 -2 6 -31 9 -64z m217 41 c36 -15 30 -26 -13 -21 -34 4 -41 10 -32 24 8
14 6 14 45 -3z m770 -196 c0 -5 -2 -10 -4 -10 -3 0 -8 5 -11 10 -3 6 -1 10 4
10 6 0 11 -4 11 -10z m-950 -43 c0 -8 9 -22 20 -32 11 -10 20 -28 20 -39 -1
-19 -3 -18 -16 7 -8 15 -16 27 -17 27 -2 0 -2 -12 -2 -27 1 -16 -3 -33 -8 -40
-5 -7 -5 -18 -1 -25 5 -9 4 -10 -3 -3 -19 18 -33 106 -20 127 14 21 27 24 27
5z m200 -151 c0 -2 -7 -7 -16 -10 -8 -3 -12 -2 -9 4 6 10 25 14 25 6z m39 -28
c11 -10 13 -10 7 0 -4 6 -3 12 2 12 10 0 24 -41 17 -48 -2 -3 -18 1 -34 8 -19
7 -28 17 -24 26 6 17 15 18 32 2z m-109 -8 c0 -5 -2 -10 -4 -10 -3 0 -8 5 -11
10 -3 6 -1 10 4 10 6 0 11 -4 11 -10z m472 -37 c22 -20 24 -63 3 -63 -15 0
-35 37 -35 66 0 18 9 18 32 -3z m-336 -16 c19 7 44 -15 37 -33 -3 -8 -1 -20 5
-27 5 -6 13 -22 16 -34 6 -17 3 -23 -8 -23 -9 0 -16 7 -16 15 0 8 -5 15 -11
15 -8 0 -8 5 1 15 9 10 9 15 1 15 -6 0 -11 7 -11 15 0 8 -5 15 -10 15 -7 0 -7
-6 0 -20 14 -26 -4 -26 -23 0 -8 11 -17 17 -20 14 -4 -4 -1 5 6 19 7 15 13 22
15 17 2 -5 10 -6 18 -3z m294 -7 c0 -5 -4 -10 -10 -10 -5 0 -10 5 -10 10 0 6
5 10 10 10 6 0 10 -4 10 -10z m-190 -133 c0 -3 -7 -7 -15 -11 -11 -4 -15 2
-15 20 0 23 2 24 15 10 8 -8 15 -17 15 -19z m355 -47 c3 -5 1 -10 -4 -10 -6 0
-11 5 -11 10 0 6 2 10 4 10 3 0 8 -4 11 -10z m-135 -86 c0 -8 -5 -12 -10 -9
-6 4 -8 11 -5 16 9 14 15 11 15 -7z m30 -40 c0 -8 -4 -12 -10 -9 -5 3 -10 10
-10 16 0 5 5 9 10 9 6 0 10 -7 10 -16z m0 -34 c0 -5 -5 -10 -11 -10 -5 0 -7 5
-4 10 3 6 8 10 11 10 2 0 4 -4 4 -10z m-31 -39 c8 -5 9 -11 3 -15 -5 -3 -15 1
-22 9 -14 16 -3 20 19 6z m79 -14 c6 3 12 0 12 -5 0 -5 -9 -12 -20 -15 -11 -3
-18 -1 -14 4 3 5 -2 9 -10 9 -9 0 -16 5 -16 10 0 7 6 7 18 2 9 -5 23 -7 30 -5z
m-56 -57 c-22 -26 -24 -25 -10 5 6 13 15 22 19 19 5 -2 1 -14 -9 -24z m-307 0
c3 -5 1 -10 -4 -10 -6 0 -11 5 -11 10 0 6 2 10 4 10 3 0 8 -4 11 -10z m466
-25 c33 -14 33 -14 7 -15 -34 0 -59 10 -52 21 7 11 6 12 45 -6z m-201 -5 c0
-5 -8 -10 -17 -10 -15 0 -16 2 -3 10 19 12 20 12 20 0z m140 -41 c0 -11 -4
-18 -10 -14 -5 3 -7 12 -3 20 7 21 13 19 13 -6z m145 1 c3 -5 1 -10 -4 -10 -6
0 -11 5 -11 10 0 6 2 10 4 10 3 0 8 -4 11 -10z m-285 -17 c0 -10 -4 -14 -8 -8
-4 6 -11 13 -16 18 -5 4 -2 7 7 7 10 0 17 -8 17 -17z m227 -15 c-3 -8 -6 -5
-6 6 -1 11 2 17 5 13 3 -3 4 -12 1 -19z m-293 -156 c3 -5 -1 -9 -9 -9 -8 0
-12 4 -9 9 3 4 7 8 9 8 2 0 6 -4 9 -8z m1235 -219 c19 -74 24 -98 17 -91 -4 3
-8 10 -9 15 0 4 -6 28 -14 52 -14 47 -16 61 -8 61 2 0 9 -17 14 -37z m-22 -35
c-3 -8 -6 -5 -6 6 -1 11 2 17 5 13 3 -3 4 -12 1 -19z m93 -103 c20 -24 6 -28
-15 -5 -10 11 -13 20 -8 20 6 0 16 -7 23 -15z m10 -84 c-1 -13 -3 -13 -15 3
-19 26 -19 42 0 26 8 -7 15 -20 15 -29z m245 -1 c3 -5 1 -10 -4 -10 -6 0 -11
5 -11 10 0 6 2 10 4 10 3 0 8 -4 11 -10z m-235 -41 c0 -6 -4 -7 -10 -4 -5 3
-10 11 -10 16 0 6 5 7 10 4 6 -3 10 -11 10 -16z m324 -4 c20 -8 36 -19 36 -24
0 -5 8 -11 18 -15 9 -3 37 -17 61 -31 24 -14 50 -25 58 -25 7 0 13 -5 13 -12
0 -6 3 -9 6 -6 9 9 70 -19 128 -58 28 -19 60 -40 70 -47 93 -60 193 -162 207
-211 3 -12 10 -20 16 -19 8 2 -19 -167 -47 -287 -10 -43 -10 -38 -13 140 -2
144 -8 170 -39 170 -22 0 -41 39 -27 56 9 11 6 16 -15 24 -15 5 -29 17 -32 25
-13 33 6 25 57 -24 29 -28 55 -49 57 -46 15 15 -168 166 -243 202 -19 9 -35
20 -35 25 0 4 -6 8 -14 8 -7 0 -25 9 -40 21 -14 11 -26 18 -26 15 0 -10 -155
75 -168 92 -7 9 -16 16 -20 15 -4 0 -18 5 -32 13 -34 18 -21 18 24 -1z m-352
-164 c-4 -10 -7 -9 -13 7 -4 11 -16 25 -26 31 -10 6 -12 11 -5 11 20 0 14 16
-10 28 -19 9 -20 11 -5 11 11 1 18 8 16 19 -4 41 3 33 25 -28 12 -36 20 -71
18 -79z m-22 -6 c0 -21 -3 -24 -17 -16 -10 5 -38 7 -62 6 -57 -5 -41 11 24 23
28 5 51 10 53 11 1 0 2 -10 2 -24z m80 -21 c0 -24 -17 -15 -22 11 -4 20 -3 23
8 14 8 -6 14 -18 14 -25z m750 -6 c0 -5 5 -6 10 -3 6 3 10 1 10 -4 0 -12 -11
-14 -34 -5 -20 8 -21 21 -1 21 8 0 15 -4 15 -9z m-150 -8 c8 -5 11 -10 5 -10
-5 0 -17 5 -25 10 -8 5 -10 10 -5 10 6 0 17 -5 25 -10z m200 -16 c0 -8 -4 -12
-10 -9 -5 3 -10 10 -10 16 0 5 5 9 10 9 6 0 10 -7 10 -16z m40 -15 c0 -18 -18
-9 -23 12 -4 16 -3 18 9 8 8 -6 14 -15 14 -20z m-840 -9 c6 -11 7 -20 2 -20
-6 0 -12 9 -15 20 -3 11 -3 20 -1 20 2 0 8 -9 14 -20z m704 -33 l21 -21 -25
17 c-14 10 -33 20 -42 24 -10 3 -18 9 -18 15 0 11 38 -9 64 -35z m-684 -48 c0
-20 -15 -26 -25 -9 -9 15 3 43 15 35 5 -3 10 -15 10 -26z m-1580 10 c0 -15
-59 -100 -90 -129 -97 -91 -110 -101 -110 -86 0 9 -8 16 -20 16 -19 0 -20 2
-5 28 25 45 42 63 63 65 11 0 20 4 20 7 -3 13 15 40 27 40 24 0 22 -25 -4 -48
l-26 -24 25 8 c24 7 49 30 50 47 0 5 -4 5 -10 2 -5 -3 -10 0 -10 8 0 23 12 28
26 9 11 -16 13 -15 23 11 6 15 15 27 20 27 6 0 8 7 5 15 -4 8 -1 15 5 15 6 0
11 -5 11 -11z m-45 -19 c-3 -5 -14 -10 -23 -9 -14 0 -13 2 3 9 27 11 27 11 20
0z m-119 -57 c-10 -10 -19 5 -10 18 6 11 8 11 12 0 2 -7 1 -15 -2 -18z m1734
18 c0 -5 3 -16 6 -25 3 -9 2 -16 -4 -16 -5 0 -12 11 -14 25 -3 14 -1 25 3 25
5 0 9 -4 9 -9z m-1772 -45 c-10 -7 -14 -17 -10 -21 4 -5 1 -5 -6 -1 -11 6 -10
12 5 26 10 9 20 15 23 13 3 -3 -3 -10 -12 -17z m2726 2 c15 -18 16 -20 2 -15
-9 4 -16 2 -16 -2 0 -5 6 -12 13 -14 9 -4 9 -6 -1 -6 -7 -1 -15 6 -18 14 -4 8
-10 12 -16 9 -5 -3 -4 3 4 15 7 12 13 21 13 21 0 0 9 -10 19 -22z m-150 -30
c-3 -4 -9 -8 -15 -8 -5 0 -9 4 -9 8 0 5 7 9 15 9 8 0 12 -4 9 -9z m-2614 -28
c-9 -16 -15 -19 -23 -11 -8 8 -6 15 9 25 24 18 29 14 14 -14z m1827 15 c8 -22
-6 -33 -17 -15 -13 20 -12 30 0 30 6 0 13 -7 17 -15z m25 -60 c2 2 4 -5 4 -15
0 -14 -7 -20 -23 -20 -18 0 -23 6 -23 25 0 22 3 24 19 16 10 -6 20 -8 23 -6z
m-6 -66 c3 -6 0 -16 -7 -21 -10 -7 -7 -7 9 -3 13 4 22 2 22 -4 0 -13 -47 -15
-54 -2 -7 11 3 41 14 41 5 0 12 -5 16 -11z m952 -80 c-3 -8 -7 -3 -11 10 -4
17 -3 21 5 13 5 -5 8 -16 6 -23z m-940 -1 c-2 -8 5 -12 17 -10 11 2 17 1 13
-4 -5 -4 -21 -8 -38 -9 -23 -1 -30 2 -30 17 0 11 7 18 20 18 11 0 19 -6 18
-12z m254 -13 c3 -13 1 -22 -3 -19 -9 5 -13 44 -5 44 2 0 6 -11 8 -25z m-1941
-12 c13 -16 12 -17 -3 -4 -10 7 -18 15 -18 17 0 8 8 3 21 -13z m1687 -48 c0
-15 -6 -25 -14 -25 -17 0 -18 37 -1 43 6 3 13 6 13 6 1 1 2 -10 2 -24z m56
-17 c7 -5 4 -8 -6 -8 -12 0 -18 7 -17 23 0 15 2 17 6 7 3 -8 11 -18 17 -22z
m226 14 c0 -10 6 -24 13 -32 10 -12 9 -12 -4 -2 -19 14 -32 52 -18 52 5 0 9
-8 9 -18z m-640 -23 c0 -6 -4 -7 -10 -4 -5 3 -10 11 -10 16 0 6 5 7 10 4 6 -3
10 -11 10 -16z m1147 -71 c-2 -13 -4 -5 -4 17 -1 22 1 32 4 23 2 -10 2 -28 0
-40z m-1238 9 c0 -21 -1 -21 -8 -3 -7 19 -8 19 -13 -2 -7 -27 -28 -29 -28 -2
0 19 28 42 42 34 5 -3 8 -15 7 -27z m437 24 c-4 -5 0 -11 6 -14 10 -3 10 -8 2
-17 -9 -9 -14 -9 -19 0 -7 11 0 40 10 40 4 0 4 -4 1 -9z m224 -30 c0 -17 -17
-13 -24 5 -10 27 -7 36 9 20 8 -8 15 -19 15 -25z m-723 -3 c-3 -7 -5 -2 -5 12
0 14 2 19 5 13 2 -7 2 -19 0 -25z m146 17 c4 -8 2 -17 -3 -20 -6 -4 -10 3 -10
14 0 25 6 27 13 6z m-82 -52 c13 -16 12 -17 -3 -4 -17 13 -22 21 -14 21 2 0
10 -8 17 -17z m667 -21 c2 -15 -2 -22 -12 -22 -11 0 -16 9 -16 26 0 31 23 28
28 -4z m564 -3 c-3 -19 -7 -26 -12 -19 -8 14 -2 50 9 50 4 0 5 -14 3 -31z
m-776 -7 c1 -7 0 -8 -2 -3 -3 6 -12 7 -21 4 -11 -4 -14 -3 -9 6 9 14 29 10 32
-7z m214 -56 c0 -8 8 -17 18 -19 9 -3 3 -5 -13 -6 -24 -1 -31 3 -31 19 0 11 6
20 13 20 7 0 13 -6 13 -14z m-239 -19 c-10 -9 -11 -8 -5 6 3 10 9 15 12 12 3
-3 0 -11 -7 -18z"/>
<path d="M1915 3640 c-3 -6 1 -7 9 -4 18 7 21 14 7 14 -6 0 -13 -4 -16 -10z"/>
<path d="M1820 3531 c0 -6 4 -12 8 -15 5 -3 9 1 9 9 0 8 -4 15 -9 15 -4 0 -8
-4 -8 -9z"/>
<path d="M1811 3494 c0 -11 3 -14 6 -6 3 7 2 16 -1 19 -3 4 -6 -2 -5 -13z"/>
<path d="M1744 3363 c1 -15 6 -26 11 -24 6 1 9 7 8 12 -2 4 3 6 11 3 8 -3 17
-1 21 5 3 6 -2 11 -12 11 -11 0 -24 5 -30 11 -7 7 -10 2 -9 -18z"/>
<path d="M1975 3330 c-3 -5 1 -10 10 -10 9 0 13 5 10 10 -3 6 -8 10 -10 10 -2
0 -7 -4 -10 -10z"/>
<path d="M1585 2760 c3 -5 8 -10 11 -10 2 0 4 5 4 10 0 6 -5 10 -11 10 -5 0
-7 -4 -4 -10z"/>
<path d="M1513 2745 c0 -8 4 -12 9 -9 5 3 6 10 3 15 -9 13 -12 11 -12 -6z"/>
<path d="M1500 2709 c0 -5 5 -7 10 -4 6 3 10 8 10 11 0 2 -4 4 -10 4 -5 0 -10
-5 -10 -11z"/>
<path d="M1562 2617 c-1 -14 5 -27 13 -31 18 -7 20 14 2 38 -11 16 -13 15 -15
-7z"/>
<path d="M4150 615 c0 -15 18 -40 24 -34 3 3 -1 14 -9 25 -8 10 -14 15 -15 9z"/>
<path d="M1558 533 c7 -3 16 -2 19 1 4 3 -2 6 -13 5 -11 0 -14 -3 -6 -6z"/>
<path d="M1251 4481 c-11 -7 -9 -10 8 -16 16 -5 21 -15 22 -43 1 -20 3 -29 6
-19 6 23 -5 87 -15 87 -4 0 -13 -4 -21 -9z"/>
<path d="M1336 3993 c-6 -14 -5 -15 5 -6 7 7 10 15 7 18 -3 3 -9 -2 -12 -12z"/>
<path d="M1330 3960 c0 -5 5 -10 11 -10 5 0 7 5 4 10 -3 6 -8 10 -11 10 -2 0
-4 -4 -4 -10z"/>
<path d="M3265 3878 c-103 -10 -151 -32 -148 -66 4 -33 160 -181 203 -191 72
-19 105 -5 171 72 30 34 59 67 65 72 6 6 19 22 28 36 15 24 15 27 -4 49 -34
39 -128 47 -315 28z"/>
<path d="M3035 2970 c-3 -5 1 -33 10 -62 8 -28 15 -68 16 -87 0 -20 4 -45 8
-56 7 -16 10 -11 15 25 14 104 14 148 0 169 -16 22 -39 28 -49 11z"/>
<path d="M2951 2594 c0 -11 3 -14 6 -6 3 7 2 16 -1 19 -3 4 -6 -2 -5 -13z"/>
<path d="M2445 2560 c3 -5 8 -10 11 -10 2 0 4 5 4 10 0 6 -5 10 -11 10 -5 0
-7 -4 -4 -10z"/>
<path d="M2430 2510 c-6 -11 -8 -20 -6 -20 3 0 10 9 16 20 6 11 8 20 6 20 -3
0 -10 -9 -16 -20z"/>
<path d="M2440 2475 c0 -16 16 -20 24 -6 3 5 -1 11 -9 15 -9 3 -15 0 -15 -9z"/>
<path d="M2360 2443 c0 -7 11 -13 25 -13 14 0 25 5 25 11 0 5 -4 7 -10 4 -5
-3 -10 -2 -10 3 0 5 -7 9 -15 9 -8 0 -15 -6 -15 -14z"/>
<path d="M2490 2430 c0 -5 5 -10 10 -10 6 0 10 5 10 10 0 6 -4 10 -10 10 -5 0
-10 -4 -10 -10z"/>
<path d="M2687 2240 c-3 -11 -1 -20 4 -20 5 0 9 9 9 20 0 11 -2 20 -4 20 -2 0
-6 -9 -9 -20z"/>
<path d="M2766 2180 c-8 -16 -10 -30 -5 -30 5 0 12 -1 16 -2 3 -2 7 4 9 12 1
8 5 23 9 33 12 30 -13 19 -29 -13z"/>
<path d="M2795 2147 c-4 -10 -5 -21 -1 -24 10 -10 18 4 13 24 -4 17 -4 17 -12
0z"/>
<path d="M2831 2144 c0 -11 3 -14 6 -6 3 7 2 16 -1 19 -3 4 -6 -2 -5 -13z"/>
<path d="M2212 2110 c0 -14 2 -19 5 -12 2 6 2 18 0 25 -3 6 -5 1 -5 -13z"/>
<path d="M2756 2114 c-3 -9 -6 -24 -6 -34 0 -10 -10 -26 -22 -34 -18 -13 -19
-16 -5 -16 9 0 17 -4 17 -10 0 -5 5 -10 12 -10 9 0 9 3 1 11 -15 15 -5 39 14
39 12 0 13 3 5 13 -6 7 -9 23 -5 35 6 25 -2 30 -11 6z"/>
<path d="M2230 2100 c0 -6 7 -10 15 -10 8 0 15 2 15 4 0 2 -7 6 -15 10 -8 3
-15 1 -15 -4z"/>
<path d="M2732 2090 c0 -14 2 -19 5 -12 2 6 2 18 0 25 -3 6 -5 1 -5 -13z"/>
<path d="M2786 2103 c-11 -11 -6 -23 9 -23 8 0 15 4 15 9 0 13 -16 22 -24 14z"/>
<path d="M2220 2052 c0 -5 7 -13 16 -16 10 -4 14 -1 12 6 -5 15 -28 23 -28 10z"/>
<path d="M2286 1933 c-6 -14 -5 -15 5 -6 7 7 10 15 7 18 -3 3 -9 -2 -12 -12z"/>
<path d="M2657 1881 c-4 -17 -3 -21 5 -13 5 5 8 16 6 23 -3 8 -7 3 -11 -10z"/>
<path d="M4139 1843 c-7 -10 -9 -15 -5 -11 5 4 15 3 22 -3 8 -7 14 -7 19 1 4
6 3 10 -2 9 -20 -3 -27 2 -13 11 8 5 10 10 4 10 -6 0 -18 -8 -25 -17z"/>
<path d="M2167 1832 c1 -8 3 -16 3 -18 0 -2 5 -4 10 -4 6 0 10 7 10 16 0 8 -4
13 -9 10 -5 -4 -11 -3 -14 1 -2 5 -2 2 0 -5z"/>
<path d="M4055 1811 c-9 -28 6 -51 16 -25 6 16 8 16 8 2 1 -26 -19 -32 -34
-12 -12 16 -16 17 -27 5 -7 -8 -8 -11 -1 -7 14 8 21 -11 15 -40 -3 -16 -9 -21
-21 -18 -14 5 -14 4 1 -5 20 -13 63 -8 63 7 0 6 3 14 8 18 4 4 7 1 7 -7 0 -8
6 -4 16 9 21 30 38 28 18 -3 -15 -23 -15 -25 0 -25 10 0 14 5 11 10 -4 6 -1
17 5 25 10 12 7 17 -19 28 -29 12 -34 29 -8 23 7 -2 9 -1 4 1 -4 3 -4 10 0 16
3 7 3 9 -2 5 -4 -4 -15 -2 -23 5 -13 10 -14 9 -7 -3 7 -13 6 -13 -7 -2 -14 11
-17 10 -23 -7z m11 -80 c0 -11 -5 -17 -13 -14 -14 6 -17 16 -6 26 11 12 19 7
19 -12z"/>
<path d="M2611 1804 c0 -11 3 -14 6 -6 3 7 2 16 -1 19 -3 4 -6 -2 -5 -13z"/>
<path d="M513 1735 c0 -8 4 -12 9 -9 5 3 6 10 3 15 -9 13 -12 11 -12 -6z"/>
<path d="M489 1738 c-7 -23 -5 -38 4 -39 7 0 4 -4 -6 -7 -28 -11 2 -47 31 -38
12 4 22 12 22 17 0 6 -8 6 -20 -1 -12 -6 -20 -7 -20 -1 0 5 12 14 28 19 l27
10 -32 12 c-18 7 -30 16 -27 21 3 5 3 9 0 9 -3 0 -6 -1 -7 -2z"/>
<path d="M3080 1647 c-25 -4 -55 -6 -67 -4 -13 2 -23 3 -23 2 0 -1 7 -16 15
-32 18 -36 55 -63 85 -63 12 0 18 -4 15 -10 -3 -5 16 -20 43 -34 26 -13 54
-32 61 -40 8 -9 17 -16 22 -16 5 0 28 -13 51 -30 22 -16 45 -30 50 -30 6 0 22
-8 36 -19 15 -10 44 -24 65 -30 20 -7 37 -19 37 -26 0 -8 18 -19 43 -25 23 -6
67 -23 97 -37 45 -21 130 -59 229 -100 8 -4 12 -2 8 3 -3 6 -2 16 3 24 5 8 5
19 0 25 -6 7 -1 11 16 11 16 0 23 -4 20 -13 -3 -7 0 -13 7 -13 8 0 6 -4 -3
-10 -8 -5 -10 -10 -5 -10 6 0 2 -6 -7 -14 -27 -20 1 -49 74 -77 35 -12 65 -25
68 -29 3 -3 28 -20 55 -37 61 -39 100 -79 110 -113 9 -31 34 -60 51 -60 20 0
78 -77 117 -155 46 -93 97 -210 97 -226 0 -6 5 -28 11 -48 10 -35 12 -36 52
-33 23 3 48 9 56 16 12 9 13 8 6 -4 -8 -13 -7 -13 8 -1 16 13 17 55 15 539
l-3 525 -22 3 c-13 2 -23 1 -23 -4 0 -4 -57 -7 -127 -7 -71 0 -137 -4 -148 -9
-11 -5 -23 -8 -27 -8 -5 1 -8 -1 -8 -6 0 -4 -16 -16 -35 -26 -19 -11 -35 -22
-35 -25 0 -4 -40 -6 -90 -6 -49 1 -90 -2 -90 -6 0 -4 -16 -13 -36 -19 -24 -8
-32 -15 -24 -20 8 -5 9 -10 2 -14 -6 -4 -16 2 -22 11 -10 16 -11 16 -7 -4 3
-13 -1 -24 -9 -27 -7 -3 -12 -11 -10 -18 1 -7 1 -10 -1 -5 -3 4 -10 4 -16 0
-8 -5 -8 -2 0 9 11 12 10 18 -6 32 -10 9 -18 30 -19 48 0 17 -5 34 -11 37 -5
3 -12 26 -16 50 -4 25 -13 54 -21 65 -8 11 -14 29 -14 39 0 24 -29 67 -45 67
-7 0 -15 6 -18 14 -4 10 -20 12 -59 9 -102 -8 -123 -8 -136 1 -7 5 -86 11
-175 13 -89 2 -176 5 -192 6 -17 1 -51 -1 -75 -6z"/>
<path d="M1755 1620 c-3 -5 -1 -10 4 -10 6 0 11 5 11 10 0 6 -2 10 -4 10 -3 0
-8 -4 -11 -10z"/>
<path d="M1860 1559 c0 -5 5 -7 10 -4 6 3 10 8 10 11 0 2 -4 4 -10 4 -5 0 -10
-5 -10 -11z"/>
<path d="M1804 1515 c8 -8 18 -15 22 -15 3 0 1 7 -6 15 -7 8 -17 15 -22 15 -5
0 -3 -7 6 -15z"/>
<path d="M2390 1520 c-8 -5 -12 -11 -9 -14 2 -3 11 -1 19 4 8 5 12 11 9 14 -2
3 -11 1 -19 -4z"/>
<path d="M50 1496 c0 -8 -7 -17 -16 -20 -15 -6 -15 -4 -3 11 11 15 10 15 -9
-1 -22 -19 -22 -23 -20 -200 2 -100 6 -179 10 -176 4 3 13 -2 20 -11 19 -25
70 -28 92 -7 11 9 23 15 27 12 5 -3 6 3 2 13 -3 10 -3 15 2 11 4 -4 15 -2 23
5 13 9 14 9 8 0 -5 -9 -2 -11 7 -7 10 4 15 19 13 49 0 24 2 41 6 39 4 -3 6 4
5 15 0 11 -5 17 -9 15 -4 -3 -8 2 -8 11 0 10 5 13 13 9 9 -6 9 -5 0 8 -7 8
-10 18 -6 21 3 4 1 7 -5 7 -5 0 -13 -6 -15 -12 -3 -7 -6 0 -6 15 -1 19 -5 26
-13 22 -7 -4 -3 2 10 12 18 15 20 21 10 32 -8 9 -9 12 -1 7 6 -3 14 -2 18 4 3
5 1 10 -5 10 -6 0 -9 4 -5 9 3 5 0 13 -6 17 -8 4 -9 3 -5 -4 4 -7 1 -12 -7
-12 -8 0 -18 7 -21 16 -4 10 -2 13 7 8 8 -5 7 -2 -2 9 -11 14 -16 15 -29 5
-13 -11 -13 -9 1 11 15 23 15 25 -3 38 -11 8 -25 11 -30 8 -6 -3 -10 -1 -10 4
0 6 -9 11 -20 11 -11 0 -20 -6 -20 -14z m75 -16 c3 -5 -1 -10 -9 -10 -9 0 -16
5 -16 10 0 6 4 10 9 10 6 0 13 -4 16 -10z"/>
<path d="M1766 1493 c-12 -12 -5 -23 14 -23 11 0 20 4 20 9 0 11 -26 22 -34
14z"/>
<path d="M3090 1481 c0 -6 4 -13 10 -16 6 -3 7 1 4 9 -7 18 -14 21 -14 7z"/>
<path d="M1870 1396 c0 -2 7 -7 16 -10 8 -3 12 -2 9 4 -6 10 -25 14 -25 6z"/>
<path d="M2000 1345 c14 -17 28 -34 31 -39 4 -4 6 3 6 17 -2 17 -6 23 -16 19
-10 -4 -12 -1 -6 9 4 8 5 11 0 7 -4 -4 -15 -2 -24 4 -9 7 -5 -1 9 -17z"/>
<path d="M2130 1300 c0 -5 5 -10 10 -10 6 0 10 5 10 10 0 6 -4 10 -10 10 -5 0
-10 -4 -10 -10z"/>
<path d="M3370 1306 c0 -2 7 -7 16 -10 8 -3 12 -2 9 4 -6 10 -25 14 -25 6z"/>
<path d="M2060 1292 c0 -4 10 -9 22 -9 18 -2 20 0 8 7 -18 12 -30 13 -30 2z"/>
<path d="M1980 1269 c0 -5 5 -7 10 -4 6 3 10 8 10 11 0 2 -4 4 -10 4 -5 0 -10
-5 -10 -11z"/>
<path d="M2164 1269 c3 -15 46 -32 46 -19 0 6 -9 10 -19 10 -11 0 -22 5 -24
10 -3 6 -4 5 -3 -1z"/>
<path d="M2080 1225 c0 -15 18 -40 24 -34 3 3 -1 14 -9 25 -8 10 -14 15 -15 9z"/>
<path d="M2245 1200 c3 -5 8 -10 11 -10 2 0 4 5 4 10 0 6 -5 10 -11 10 -5 0
-7 -4 -4 -10z"/>
<path d="M3860 1175 c-7 -9 -8 -15 -2 -15 5 0 12 7 16 15 3 8 4 15 2 15 -2 0
-9 -7 -16 -15z"/>
<path d="M3998 1003 c7 -3 16 -2 19 1 4 3 -2 6 -13 5 -11 0 -14 -3 -6 -6z"/>
<path d="M4100 879 c0 -5 9 -9 20 -9 11 0 20 2 20 4 0 2 -9 6 -20 9 -11 3 -20
1 -20 -4z"/>
<path d="M4561 74 c0 -11 3 -14 6 -6 3 7 2 16 -1 19 -3 4 -6 -2 -5 -13z"/>
<path d="M4588 23 c5 -21 7 -23 10 -9 2 10 0 22 -6 28 -6 6 -7 0 -4 -19z"/>
</g>
</svg>
